<svg width="11" height="16" viewBox="0 0 11 16" fill="none" xmlns="http://www.w3.org/2000/svg">
<path d="M10.8438 3.75V11.25C10.8021 11.7083 10.5521 11.9583 10.0938 12C9.63542 11.9583 9.38542 11.7083 9.34375 11.25V5.5625L2.125 12.7812C1.97917 12.9271 1.80208 13 1.59375 13C1.38542 13 1.20833 12.9271 1.0625 12.7812C0.770833 12.4271 0.770833 12.0729 1.0625 11.7188L8.28125 4.5H2.59375C2.13542 4.45833 1.88542 4.20833 1.84375 3.75C1.88542 3.29167 2.13542 3.04167 2.59375 3H10.0938C10.5521 3.04167 10.8021 3.29167 10.8438 3.75Z" fill="white"/>
</svg>
