<svg width="36" height="23" viewBox="0 0 36 23" fill="none" xmlns="http://www.w3.org/2000/svg">
<path d="M33.1901 6.51622C32.128 5.65691 30.8022 5.18772 29.4346 5.18723H23.0424C22.6616 5.19494 22.2907 5.06549 21.9977 4.8226C21.8218 4.66757 21.6845 4.47376 21.5967 4.25655C21.509 4.03934 21.4733 3.80472 21.4923 3.57132C21.5354 3.19291 21.7178 2.84394 22.0042 2.59211C22.2907 2.34028 22.6607 2.20356 23.0424 2.20845H35.0278L35.8009 0.604494H9.16736C8.06745 0.603726 6.97845 0.822041 5.96424 1.24662C4.95003 1.67121 4.03102 2.29352 3.26111 3.07706C2.49121 3.8606 1.88591 4.78959 1.48071 5.80955C1.07551 6.82952 0.878574 7.91991 0.901445 9.0168C0.989337 13.472 4.77072 17.0964 9.32916 17.0964H15.9451L15.0901 19.8659L15.3838 19.8938C15.7571 19.9309 16.1113 20.0764 16.4025 20.3122L16.6283 20.4936L18.478 17.1063H29.3088C30.8595 17.1271 32.3598 16.557 33.5037 15.5123C34.0975 14.9622 34.5726 14.2972 34.9002 13.5578C35.2277 12.8185 35.4008 12.0203 35.4089 11.212C35.4169 10.4037 35.2597 9.60229 34.9469 8.8566C34.6341 8.11091 34.1723 7.43661 33.5896 6.87487C33.5376 6.81111 33.27 6.58397 33.1901 6.51622ZM19.8703 3.52748C19.8443 3.9479 19.9064 4.3691 20.0526 4.76428C20.1988 5.15946 20.4258 5.51996 20.7193 5.82283C21.024 6.13212 21.3883 6.37667 21.7903 6.54172C22.1924 6.70678 22.6237 6.78893 23.0584 6.78322H29.4286C29.8628 6.82764 30.2851 6.95053 30.6751 7.14585C31.2258 7.38894 31.6801 7.80738 31.9667 8.33563C32.2534 8.86386 32.3562 9.47204 32.2592 10.0649L32.2472 10.1107C32.1461 10.6466 31.9368 11.1564 31.632 11.609C31.2373 12.2193 30.6951 12.7207 30.0552 13.0671C29.4154 13.4136 28.6985 13.5939 27.9704 13.5916H10.8673C7.19577 13.5916 4.20741 11.0352 4.20741 7.89304C4.20741 6.39269 4.88659 4.97403 6.11708 3.90805C7.4418 2.78559 9.12927 2.1797 10.8673 2.20248H20.2558C20.0222 2.6067 19.8899 3.06128 19.8703 3.52748Z" fill="white"/>
<path d="M15.2087 22.9997C15.8949 22.9997 16.4512 22.4448 16.4512 21.7603C16.4512 21.0759 15.8949 20.521 15.2087 20.521C14.5225 20.521 13.9662 21.0759 13.9662 21.7603C13.9662 22.4448 14.5225 22.9997 15.2087 22.9997Z" fill="white"/>
</svg>
