<svg width="214" height="42" viewBox="0 0 214 42" fill="none" xmlns="http://www.w3.org/2000/svg">
<path d="M54.4042 14.3081C52.62 12.8645 50.3926 12.0762 48.0951 12.0754H37.3562C36.7163 12.0883 36.0932 11.8709 35.601 11.4628C35.3054 11.2024 35.0748 10.8768 34.9274 10.5118C34.78 10.1469 34.72 9.75276 34.752 9.36065C34.8243 8.72492 35.1308 8.13865 35.612 7.71558C36.0932 7.29251 36.7148 7.06281 37.3562 7.07104H57.4917L58.7904 4.37638H14.046C12.1982 4.37509 10.3686 4.74186 8.66476 5.45516C6.96088 6.16846 5.41695 7.21394 4.1235 8.53029C2.83006 9.84664 1.81316 11.4074 1.13242 13.1209C0.451687 14.8344 0.120828 16.6663 0.159251 18.5091C0.306911 25.9939 6.65965 32.0828 14.3178 32.0828H25.4326L23.9963 36.7356L24.4896 36.7825C25.1168 36.8448 25.7118 37.0892 26.2011 37.4855L26.5804 37.7901L29.6879 32.0995H47.8837C50.489 32.1344 53.0095 31.1767 54.9311 29.4216C55.9287 28.4974 56.7269 27.3802 57.2772 26.1381C57.8275 24.8959 58.1183 23.555 58.1318 22.1971C58.1453 20.8391 57.8813 19.4927 57.3558 18.2399C56.8303 16.9872 56.0544 15.8544 55.0754 14.9106C54.9882 14.8035 54.5385 14.4219 54.4042 14.3081ZM32.027 9.28701C31.9834 9.99331 32.0877 10.7009 32.3333 11.3648C32.5788 12.0287 32.9602 12.6344 33.4533 13.1432C33.9652 13.6628 34.5773 14.0737 35.2527 14.3509C35.9281 14.6282 36.6527 14.7662 37.383 14.7567H48.085C48.8143 14.8313 49.5239 15.0377 50.1791 15.3659C51.1043 15.7743 51.8674 16.4773 52.349 17.3647C52.8306 18.2521 53.0034 19.2739 52.8404 20.2698L52.8202 20.3468C52.6504 21.2471 52.2987 22.1036 51.7866 22.864C51.1236 23.8892 50.2127 24.7316 49.1377 25.3136C48.0628 25.8956 46.8583 26.1986 45.6352 26.1947H16.9019C10.7337 26.1947 5.71329 21.9 5.71329 16.6212C5.71329 14.1006 6.8543 11.7172 8.92154 9.92636C11.1471 8.04062 13.982 7.02273 16.9019 7.06099H32.6747C32.2821 7.74009 32.0599 8.50378 32.027 9.28701Z" fill="white"/>
<path d="M24.1954 42.0003C25.3482 42.0003 26.2828 41.0681 26.2828 39.9182C26.2828 38.7683 25.3482 37.8361 24.1954 37.8361C23.0426 37.8361 22.108 38.7683 22.108 39.9182C22.108 41.0681 23.0426 42.0003 24.1954 42.0003Z" fill="white"/>
<path d="M80.0165 29.1886C76.127 29.1886 73.4893 26.0655 73.4893 20.8502C73.4893 15.7689 76.0801 12.5119 79.993 12.5119C83.3221 12.5119 85.3357 14.4533 85.782 17.0175H90.4064C89.9836 12.3579 86.1377 8.43473 79.9494 8.43473C73.0866 8.43473 68.5729 13.3152 68.5729 20.8502C68.5729 28.5191 73.1101 33.2356 79.983 33.2356C85.8156 33.2356 89.8829 29.8681 90.4434 24.8068H85.8256C85.2451 27.6488 83.1778 29.1886 80.0165 29.1886Z" fill="white"/>
<path d="M109.39 22.7027C109.39 26.5355 106.954 29.0627 103.333 29.0627C99.8259 29.0627 97.8359 27.0777 97.8359 23.3722V8.7474H92.9866V24.2793C92.9866 29.8293 96.3828 33.2403 101.682 33.2403C105.39 33.2403 108.115 31.7038 109.525 28.8251H109.615V32.9725H114.24V8.7474H109.39V22.7027Z" fill="white"/>
<path d="M128.414 8.43473C121.622 8.43473 117.195 13.3588 117.195 20.9406C117.195 28.5225 121.575 33.2456 128.606 33.2456C134.059 33.2456 138.338 30.2129 139.009 25.8813H134.405C133.733 28.0003 131.522 29.3392 128.7 29.3392C124.723 29.3392 122.085 26.5743 122.085 22.3833V22.0921H139.271V20.3983C139.277 13.0474 135.076 8.43473 128.414 8.43473ZM122.108 18.6443C122.377 14.922 124.904 12.378 128.391 12.378C131.878 12.378 134.311 14.8751 134.431 18.6443H122.108Z" fill="white"/>
<path d="M154.365 19.4239L150.338 18.4632C147.767 17.8406 146.562 16.8364 146.562 15.3669C146.562 13.4488 148.395 12.1768 151.143 12.1768C153.892 12.1768 155.771 13.5158 155.969 15.6547H160.53C160.419 11.4437 156.573 8.45449 151.254 8.45449C145.666 8.45449 141.857 11.3768 141.857 15.6347C141.857 18.9821 144.025 21.2081 148.405 22.2759L152.74 23.3471C155.288 23.9931 156.247 24.7965 156.247 26.3329C156.247 28.2945 154.348 29.5431 151.331 29.5431C148.247 29.5431 146.371 28.2744 145.992 25.9547H141.199C141.559 30.3063 145.425 33.2453 151.079 33.2453C156.955 33.2453 161.07 30.2561 161.07 25.9312C161.07 22.3663 159.258 20.5955 154.365 19.4239Z" fill="white"/>
<path d="M174.486 8.43473C167.492 8.43473 162.999 13.2483 162.999 20.8502C162.999 28.4522 167.469 33.2356 174.486 33.2356C181.503 33.2356 185.953 28.4655 185.953 20.8502C185.953 13.2349 181.483 8.43473 174.486 8.43473ZM174.486 29.2321C170.375 29.2321 167.915 26.1324 167.915 20.8636C167.915 15.5948 170.375 12.4583 174.486 12.4583C178.597 12.4583 181.037 15.5747 181.037 20.8502C181.037 26.1257 178.6 29.2321 174.486 29.2321Z" fill="white"/>
<path d="M195.164 6.67107C195.187 4.59569 196.016 3.72872 198.003 3.72872C198.612 3.72363 199.219 3.78311 199.815 3.90614V0.223995C199.003 0.0788512 198.18 0.0038205 197.355 -0.000274658C192.439 -0.000274658 190.382 1.98472 190.382 6.5104V8.73978H187.026V12.5591H190.382V32.9548H195.211V12.5591H199.835V8.74311H195.164V6.67107Z" fill="white"/>
<path d="M213.854 12.5599V8.74388H209.206V3.30436H204.377V8.74388H201.021V12.5599H204.377V26.5788C204.377 31.2652 206.256 33.1129 211.105 33.1129C212.019 33.1209 212.932 33.0391 213.83 32.8686V29.0525C213.281 29.118 212.729 29.1549 212.176 29.163C210.142 29.163 209.206 28.1822 209.206 26.0867V12.5599H213.854Z" fill="white"/>
</svg>
