<svg width="1204" height="1200" viewBox="0 0 1204 1200" fill="none" xmlns="http://www.w3.org/2000/svg">
<path d="M51.8334 50.001C51.8334 55.892 56.609 60.6677 62.5 60.6677C68.3911 60.6677 73.1667 55.892 73.1667 50.001C73.1667 44.11 68.3911 39.3343 62.5 39.3343C56.609 39.3343 51.8334 44.11 51.8334 50.001ZM1182.33 1189C1182.33 1194.89 1187.11 1199.67 1193 1199.67C1198.89 1199.67 1203.67 1194.89 1203.67 1189C1203.67 1183.11 1198.89 1178.33 1193 1178.33C1187.11 1178.33 1182.33 1183.11 1182.33 1189ZM62.5 50.001C62.8009 51.9782 62.8049 51.9776 62.8132 51.9763C62.8218 51.9751 62.8344 51.9731 62.8514 51.9706C62.8854 51.9654 62.9366 51.9577 63.0047 51.9474C63.1409 51.9268 63.345 51.896 63.616 51.8554C64.1579 51.7741 64.9672 51.6534 66.0352 51.4957C68.1712 51.1803 71.3422 50.7169 75.479 50.1258C83.7527 48.9434 95.8899 47.2498 111.339 45.2053C142.236 41.1164 186.379 35.6244 239.351 30.0132C345.302 18.7901 486.548 7.09313 627.777 5.18793C769.044 3.28221 910.135 11.1775 1015.85 39.067C1068.71 53.0134 1112.56 71.9174 1143.16 96.9592C1173.69 121.949 1191 153.015 1191 191.5H1193H1195C1195 151.611 1176.98 119.473 1145.69 93.8638C1114.46 68.306 1069.99 49.214 1016.87 35.1994C910.615 7.16718 769.081 -0.718664 627.723 1.18829C486.327 3.09576 344.948 14.8052 238.93 26.0354C185.918 31.6509 141.74 37.1472 110.814 41.2399C95.3504 43.2863 83.1995 44.9818 74.9131 46.166C70.7699 46.7581 67.5928 47.2223 65.4509 47.5386C64.3799 47.6968 63.5676 47.8179 63.0228 47.8996C62.7504 47.9405 62.5449 47.9715 62.4072 47.9922C62.3384 48.0026 62.2866 48.0105 62.2519 48.0157C62.2345 48.0184 62.2213 48.0204 62.2126 48.0217C62.2038 48.023 62.1992 48.0237 62.5 50.001ZM1193 191.5H1191C1191 229.96 1172.15 264.376 1138.82 295.904C1105.48 327.451 1057.79 355.962 1000.5 382.538C885.911 435.692 733.509 480.85 582.152 527.151C430.901 573.419 280.689 620.83 170.837 678.472C115.909 707.295 70.9183 738.752 40.9236 774.029C10.8875 809.354 -4.15145 848.57 1.01387 892.733L3.00033 892.501L4.98679 892.268C-0.0233252 849.432 14.4936 811.288 43.971 776.62C73.4897 741.903 117.97 710.731 172.696 682.014C282.154 624.578 431.985 577.27 583.322 530.976C734.553 484.714 887.282 439.466 1002.18 386.167C1059.63 359.516 1107.77 330.789 1141.57 298.81C1175.39 266.812 1195 231.415 1195 191.5H1193ZM3.00033 892.501L1.01387 892.733C11.3299 980.935 91.8136 1043.36 205.384 1087.51C319.103 1131.71 466.79 1157.92 613.055 1173.24C759.349 1188.56 904.354 1193 1012.78 1193.61C1066.99 1193.91 1112.06 1193.26 1143.58 1192.53C1159.34 1192.17 1171.72 1191.79 1180.15 1191.49C1184.37 1191.35 1187.6 1191.22 1189.78 1191.14C1190.87 1191.09 1191.7 1191.06 1192.25 1191.03C1192.53 1191.02 1192.74 1191.01 1192.88 1191.01C1192.95 1191 1193 1191 1193.04 1191C1193.05 1191 1193.07 1191 1193.08 1191C1193.08 1191 1193.09 1191 1193 1189C1192.91 1187 1192.91 1187 1192.9 1187C1192.89 1187 1192.88 1187 1192.86 1187C1192.82 1187.01 1192.77 1187.01 1192.7 1187.01C1192.57 1187.02 1192.36 1187.03 1192.08 1187.04C1191.53 1187.06 1190.71 1187.1 1189.62 1187.14C1187.45 1187.23 1184.22 1187.35 1180.01 1187.5C1171.59 1187.79 1159.24 1188.17 1143.49 1188.53C1112 1189.26 1066.97 1189.91 1012.8 1189.61C904.453 1189 759.59 1184.56 613.472 1169.26C467.324 1153.95 320.055 1127.79 206.833 1083.78C93.4633 1039.71 15.0217 978.066 4.98679 892.268L3.00033 892.501Z" fill="#212121"/>
</svg>
