<svg width="51" height="50" viewBox="0 0 51 50" fill="none" xmlns="http://www.w3.org/2000/svg">
<rect x="1.11523" y="0.5" width="49" height="49" rx="24.5" stroke="#DDDDDD" stroke-opacity="0.1"/>
<g clip-path="url(#clip0_233_591)">
<g clip-path="url(#clip1_233_591)">
<g clip-path="url(#clip2_233_591)">
<path d="M29.4129 17.7266H26.7404C26.7343 17.7265 26.7282 17.7268 26.7221 17.7274C24.0239 17.7362 23.6715 19.6909 23.6701 21.3993C23.6663 21.4155 23.6644 21.432 23.6644 21.4487V22.648H21.8178C21.764 22.648 21.7125 22.6701 21.6746 22.7095C21.6366 22.7489 21.6152 22.8024 21.6152 22.8581V25.8158C21.6152 25.8715 21.6366 25.925 21.6746 25.9644C21.7125 26.0038 21.764 26.0259 21.8178 26.0259H23.6644V32.5164C23.6644 32.5722 23.6857 32.6256 23.7237 32.665C23.7617 32.7044 23.8132 32.7265 23.8669 32.7265H26.5619C26.6157 32.7265 26.6672 32.7044 26.7052 32.665C26.7431 32.6256 26.7645 32.5722 26.7645 32.5164V26.0261H29.4127C29.4664 26.0261 29.5179 26.004 29.5559 25.9646C29.5939 25.9252 29.6152 25.8718 29.6152 25.816V22.8583C29.6152 22.8026 29.5939 22.7491 29.5559 22.7097C29.5179 22.6703 29.4664 22.6482 29.4127 22.6482H26.5619V21.0583H29.4127C29.4664 21.0583 29.5179 21.0362 29.5559 20.9968C29.5939 20.9573 29.6152 20.9039 29.6152 20.8482V17.9367C29.6153 17.9091 29.61 17.8818 29.5999 17.8563C29.5897 17.8308 29.5748 17.8076 29.556 17.7881C29.5373 17.7686 29.5149 17.7531 29.4904 17.7426C29.4658 17.732 29.4395 17.7266 29.4129 17.7266Z" fill="white"/>
</g>
</g>
</g>
<defs>
<clipPath id="clip0_233_591">
<rect width="8" height="16" fill="white" transform="translate(21.6152 17)"/>
</clipPath>
<clipPath id="clip1_233_591">
<rect width="8" height="16" fill="white" transform="translate(21.6152 17)"/>
</clipPath>
<clipPath id="clip2_233_591">
<rect width="8" height="16" fill="white" transform="translate(21.6152 17)"/>
</clipPath>
</defs>
</svg>
