<svg width="51" height="50" viewBox="0 0 51 50" fill="none" xmlns="http://www.w3.org/2000/svg">
<rect x="1.11523" y="0.5" width="49" height="49" rx="24.5" stroke="#DDDDDD" stroke-opacity="0.1"/>
<g clip-path="url(#clip0_233_609)">
<g clip-path="url(#clip1_233_609)">
<g clip-path="url(#clip2_233_609)">
<mask id="mask0_233_609" style="mask-type:luminance" maskUnits="userSpaceOnUse" x="17" y="16" width="18" height="18">
<path d="M34.1152 16.7266H17.1152V33.7266H34.1152V16.7266Z" fill="white"/>
</mask>
<g mask="url(#mask0_233_609)">
<path d="M28.8027 16.7266H22.4277C21.0188 16.7266 19.6675 17.2863 18.6712 18.2826C17.6749 19.2788 17.1152 20.6301 17.1152 22.0391V28.414C17.1152 29.823 17.6749 31.1743 18.6712 32.1705C19.6675 33.1668 21.0188 33.7265 22.4277 33.7265H28.8027C30.2117 33.7265 31.5629 33.1668 32.5592 32.1705C33.5555 31.1743 34.1152 29.823 34.1152 28.414V22.0391C34.1152 20.6301 33.5555 19.2788 32.5592 18.2826C31.5629 17.2863 30.2117 16.7266 28.8027 16.7266ZM32.5214 28.414C32.5214 30.4647 30.8533 32.1328 28.8027 32.1328H22.4277C20.3771 32.1328 18.709 30.4647 18.709 28.414V22.0391C18.709 19.9884 20.3771 18.3203 22.4277 18.3203H28.8027C30.8533 18.3203 32.5214 19.9884 32.5214 22.0391V28.414Z" fill="white"/>
<path d="M25.6074 20.9766C24.4803 20.9766 23.3992 21.4243 22.6022 22.2214C21.8052 23.0184 21.3574 24.0994 21.3574 25.2266C21.3574 26.3537 21.8052 27.4347 22.6022 28.2317C23.3992 29.0288 24.4803 29.4765 25.6074 29.4765C26.7346 29.4765 27.8156 29.0288 28.6126 28.2317C29.4096 27.4347 29.8574 26.3537 29.8574 25.2266C29.8574 24.0994 29.4096 23.0184 28.6126 22.2214C27.8156 21.4243 26.7346 20.9766 25.6074 20.9766ZM25.6074 27.8828C24.9032 27.8819 24.2281 27.6018 23.7301 27.1038C23.2321 26.6059 22.952 25.9308 22.9512 25.2266C22.9512 23.7614 24.1433 22.5703 25.6074 22.5703C27.0715 22.5703 28.2636 23.7614 28.2636 25.2266C28.2636 26.6906 27.0715 27.8828 25.6074 27.8828Z" fill="white"/>
<path d="M30.1776 21.222C30.4904 21.222 30.7439 20.9684 30.7439 20.6557C30.7439 20.3429 30.4904 20.0894 30.1776 20.0894C29.8648 20.0894 29.6113 20.3429 29.6113 20.6557C29.6113 20.9684 29.8648 21.222 30.1776 21.222Z" fill="white"/>
</g>
</g>
</g>
</g>
<defs>
<clipPath id="clip0_233_609">
<rect width="17" height="18" fill="white" transform="translate(17.1152 16)"/>
</clipPath>
<clipPath id="clip1_233_609">
<rect width="17" height="18" fill="white" transform="translate(17.1152 16)"/>
</clipPath>
<clipPath id="clip2_233_609">
<rect width="17" height="18" fill="white" transform="translate(17.1152 16)"/>
</clipPath>
</defs>
</svg>
