<svg width="50" height="50" viewBox="0 0 50 50" fill="none" xmlns="http://www.w3.org/2000/svg">
<rect x="0.5" y="0.5" width="49" height="49" rx="24.5" stroke="#DDDDDD" stroke-opacity="0.1"/>
<g clip-path="url(#clip0_338_185)">
<g clip-path="url(#clip1_338_185)">
<g clip-path="url(#clip2_338_185)">
<mask id="mask0_338_185" style="mask-type:luminance" maskUnits="userSpaceOnUse" x="16" y="16" width="18" height="18">
<path d="M33.5 16.7266H16.5V33.7266H33.5V16.7266Z" fill="white"/>
</mask>
<g mask="url(#mask0_338_185)">
<path d="M28.1875 16.7266H21.8125C20.4035 16.7266 19.0523 17.2863 18.056 18.2826C17.0597 19.2788 16.5 20.6301 16.5 22.0391V28.414C16.5 29.823 17.0597 31.1743 18.056 32.1705C19.0523 33.1668 20.4035 33.7265 21.8125 33.7265H28.1875C29.5965 33.7265 30.9477 33.1668 31.944 32.1705C32.9403 31.1743 33.5 29.823 33.5 28.414V22.0391C33.5 20.6301 32.9403 19.2788 31.944 18.2826C30.9477 17.2863 29.5965 16.7266 28.1875 16.7266ZM31.9062 28.414C31.9062 30.4647 30.2381 32.1328 28.1875 32.1328H21.8125C19.7619 32.1328 18.0938 30.4647 18.0938 28.414V22.0391C18.0938 19.9884 19.7619 18.3203 21.8125 18.3203H28.1875C30.2381 18.3203 31.9062 19.9884 31.9062 22.0391V28.414Z" fill="white"/>
<g clip-path="url(#clip3_338_185)">
<path d="M22.4999 21.6668C22.4999 22.1271 22.1268 22.5002 21.6666 22.5002C21.2063 22.5002 20.8333 22.1271 20.8333 21.6668C20.8333 21.2066 21.2063 20.8335 21.6666 20.8335C22.1268 20.8335 22.4999 21.2066 22.4999 21.6668Z" stroke="white" stroke-width="0.5" stroke-linecap="round" stroke-linejoin="round"/>
<path d="M20.8333 23.75H22.4999V29.1667H20.8333V23.75Z" stroke="white" stroke-width="0.5" stroke-linecap="round" stroke-linejoin="round"/>
<path d="M24.1667 29.1667H25.8334V26.25C25.8334 25.7897 26.2065 25.4167 26.6667 25.4167C27.127 25.4167 27.5001 25.7897 27.5001 26.25V29.1667H29.1667V26.25C29.1667 24.8693 28.0475 23.75 26.6667 23.75C25.286 23.75 24.1667 24.8693 24.1667 26.25V29.1667Z" stroke="white" stroke-width="0.5" stroke-linecap="round" stroke-linejoin="round"/>
</g>
</g>
</g>
</g>
</g>
<defs>
<clipPath id="clip0_338_185">
<rect width="17" height="18" fill="white" transform="translate(16.5 16)"/>
</clipPath>
<clipPath id="clip1_338_185">
<rect width="17" height="18" fill="white" transform="translate(16.5 16)"/>
</clipPath>
<clipPath id="clip2_338_185">
<rect width="17" height="18" fill="white" transform="translate(16.5 16)"/>
</clipPath>
<clipPath id="clip3_338_185">
<rect width="10" height="10" fill="white" transform="translate(20 20)"/>
</clipPath>
</defs>
</svg>
