<svg width="561" height="104" viewBox="0 0 561 104" fill="none" xmlns="http://www.w3.org/2000/svg">
<path d="M43.8894 81.2012L560.255 81.2012" stroke="#0A0A0A" stroke-width="0.6"/>
<path d="M43.8894 57.2012L560.255 57.2011" stroke="#0A0A0A" stroke-width="0.6"/>
<path d="M43.8894 33.2012L560.255 33.2011" stroke="#0A0A0A" stroke-width="0.6"/>
<path d="M43.8894 9.20121L560.255 9.20115" stroke="#171717" stroke-width="0.6"/>
<path d="M165.977 81.2012L165.977 9.20117" stroke="#0A0A0A" stroke-width="0.6" stroke-dasharray="5 5"/>
<path d="M71.7006 81.2012L71.7006 9.20117" stroke="#0A0A0A" stroke-width="0.6" stroke-dasharray="5 5"/>
<path d="M260.252 81.2012L260.252 9.20117" stroke="#0A0A0A" stroke-width="0.6" stroke-dasharray="5 5"/>
<path d="M354.528 81.2012L354.528 9.20117" stroke="#0A0A0A" stroke-width="0.6" stroke-dasharray="5 5"/>
<path d="M448.801 81.2012L448.801 9.20117" stroke="#0A0A0A" stroke-width="0.6" stroke-dasharray="5 5"/>
<path d="M543.078 81.2012L543.078 9.20117" stroke="#0A0A0A" stroke-width="0.6" stroke-dasharray="5 5"/>
<path d="M22.9796 86.3052C22.5476 86.3052 22.1743 86.1878 21.8596 85.9532C21.5449 85.7132 21.2996 85.3772 21.1236 84.9452C20.9529 84.5078 20.8676 83.9932 20.8676 83.4012C20.8676 82.8092 20.9529 82.2945 21.1236 81.8572C21.2996 81.4198 21.5449 81.0838 21.8596 80.8492C22.1743 80.6145 22.5476 80.4972 22.9796 80.4972C23.4116 80.4972 23.7849 80.6145 24.0996 80.8492C24.4196 81.0838 24.6649 81.4198 24.8356 81.8572C25.0063 82.2945 25.0916 82.8092 25.0916 83.4012C25.0916 83.9932 25.0063 84.5078 24.8356 84.9452C24.6649 85.3772 24.4196 85.7132 24.0996 85.9532C23.7849 86.1878 23.4116 86.3052 22.9796 86.3052ZM22.9796 85.6412C23.2729 85.6412 23.5236 85.5532 23.7316 85.3772C23.9449 85.1958 24.1103 84.9372 24.2276 84.6012C24.3449 84.2598 24.4036 83.8598 24.4036 83.4012C24.4036 82.9425 24.3449 82.5452 24.2276 82.2092C24.1103 81.8678 23.9449 81.6092 23.7316 81.4332C23.5236 81.2518 23.2729 81.1612 22.9796 81.1612C22.6916 81.1612 22.4409 81.2518 22.2276 81.4332C22.0196 81.6092 21.8569 81.8678 21.7396 82.2092C21.6223 82.5452 21.5636 82.9425 21.5636 83.4012C21.5636 83.8598 21.6223 84.2598 21.7396 84.6012C21.8569 84.9372 22.0196 85.1958 22.2276 85.3772C22.4409 85.5532 22.6916 85.6412 22.9796 85.6412Z" fill="#AEB9E1"/>
<path d="M16.0077 60.2012V54.9132L16.3437 55.2012L14.9917 56.2812H14.9277V55.4972L16.0317 54.6012H16.6877V60.2012H16.0077ZM19.8489 60.3052C19.4169 60.3052 19.0436 60.1878 18.7289 59.9532C18.4143 59.7132 18.1689 59.3772 17.9929 58.9452C17.8223 58.5078 17.7369 57.9932 17.7369 57.4012C17.7369 56.8092 17.8223 56.2945 17.9929 55.8572C18.1689 55.4198 18.4143 55.0838 18.7289 54.8492C19.0436 54.6145 19.4169 54.4972 19.8489 54.4972C20.2809 54.4972 20.6543 54.6145 20.9689 54.8492C21.2889 55.0838 21.5343 55.4198 21.7049 55.8572C21.8756 56.2945 21.9609 56.8092 21.9609 57.4012C21.9609 57.9932 21.8756 58.5078 21.7049 58.9452C21.5343 59.3772 21.2889 59.7132 20.9689 59.9532C20.6543 60.1878 20.2809 60.3052 19.8489 60.3052ZM19.8489 59.6412C20.1423 59.6412 20.3929 59.5532 20.6009 59.3772C20.8143 59.1958 20.9796 58.9372 21.0969 58.6012C21.2143 58.2598 21.2729 57.8598 21.2729 57.4012C21.2729 56.9425 21.2143 56.5452 21.0969 56.2092C20.9796 55.8678 20.8143 55.6092 20.6009 55.4332C20.3929 55.2518 20.1423 55.1612 19.8489 55.1612C19.5609 55.1612 19.3103 55.2518 19.0969 55.4332C18.8889 55.6092 18.7263 55.8678 18.6089 56.2092C18.4916 56.5452 18.4329 56.9425 18.4329 57.4012C18.4329 57.8598 18.4916 58.2598 18.6089 58.6012C18.7263 58.9372 18.8889 59.1958 19.0969 59.3772C19.3103 59.5532 19.5609 59.6412 19.8489 59.6412ZM24.7708 60.3052C24.3388 60.3052 23.9655 60.1878 23.6508 59.9532C23.3361 59.7132 23.0908 59.3772 22.9148 58.9452C22.7441 58.5078 22.6588 57.9932 22.6588 57.4012C22.6588 56.8092 22.7441 56.2945 22.9148 55.8572C23.0908 55.4198 23.3361 55.0838 23.6508 54.8492C23.9655 54.6145 24.3388 54.4972 24.7708 54.4972C25.2028 54.4972 25.5761 54.6145 25.8908 54.8492C26.2108 55.0838 26.4561 55.4198 26.6268 55.8572C26.7975 56.2945 26.8828 56.8092 26.8828 57.4012C26.8828 57.9932 26.7975 58.5078 26.6268 58.9452C26.4561 59.3772 26.2108 59.7132 25.8908 59.9532C25.5761 60.1878 25.2028 60.3052 24.7708 60.3052ZM24.7708 59.6412C25.0641 59.6412 25.3148 59.5532 25.5228 59.3772C25.7361 59.1958 25.9015 58.9372 26.0188 58.6012C26.1361 58.2598 26.1948 57.8598 26.1948 57.4012C26.1948 56.9425 26.1361 56.5452 26.0188 56.2092C25.9015 55.8678 25.7361 55.6092 25.5228 55.4332C25.3148 55.2518 25.0641 55.1612 24.7708 55.1612C24.4828 55.1612 24.2321 55.2518 24.0188 55.4332C23.8108 55.6092 23.6481 55.8678 23.5308 56.2092C23.4135 56.5452 23.3548 56.9425 23.3548 57.4012C23.3548 57.8598 23.4135 58.2598 23.5308 58.6012C23.6481 58.9372 23.8108 59.1958 24.0188 59.3772C24.2321 59.5532 24.4828 59.6412 24.7708 59.6412Z" fill="#AEB9E1"/>
<path d="M13.8629 34.2012V33.5932L15.9269 31.5772C16.1349 31.3638 16.2976 31.1825 16.4149 31.0332C16.5322 30.8838 16.6149 30.7425 16.6629 30.6092C16.7109 30.4758 16.7349 30.3372 16.7349 30.1932C16.7349 30.0172 16.6922 29.8518 16.6069 29.6972C16.5216 29.5372 16.3962 29.4092 16.2309 29.3132C16.0709 29.2118 15.8709 29.1612 15.6309 29.1612C15.4176 29.1612 15.2202 29.2118 15.0389 29.3132C14.8576 29.4092 14.7109 29.5585 14.5989 29.7612C14.4922 29.9638 14.4389 30.2172 14.4389 30.5212L14.3509 30.5372L13.7589 30.4012C13.7589 30.0065 13.8442 29.6678 14.0149 29.3852C14.1856 29.1025 14.4122 28.8838 14.6949 28.7292C14.9829 28.5745 15.2976 28.4972 15.6389 28.4972C15.9856 28.4972 16.2949 28.5745 16.5669 28.7292C16.8389 28.8785 17.0496 29.0838 17.1989 29.3452C17.3536 29.6012 17.4309 29.8918 17.4309 30.2172C17.4309 30.4305 17.3962 30.6278 17.3269 30.8092C17.2629 30.9852 17.1562 31.1692 17.0069 31.3612C16.8576 31.5532 16.6549 31.7745 16.3989 32.0252L14.6229 33.7692L14.4949 33.5452H17.6069V34.2012H13.8629ZM20.1175 34.3052C19.7495 34.3052 19.4242 34.2358 19.1415 34.0972C18.8589 33.9585 18.6295 33.7638 18.4535 33.5132C18.2775 33.2625 18.1682 32.9692 18.1255 32.6332L18.7175 32.5052L18.8055 32.5212C18.8482 32.7505 18.9255 32.9505 19.0375 33.1212C19.1549 33.2865 19.3015 33.4145 19.4775 33.5052C19.6535 33.5958 19.8562 33.6412 20.0855 33.6412C20.3575 33.6412 20.5895 33.5878 20.7815 33.4812C20.9735 33.3745 21.1202 33.2278 21.2215 33.0412C21.3229 32.8492 21.3735 32.6278 21.3735 32.3772C21.3735 32.1265 21.3202 31.9052 21.2135 31.7132C21.1122 31.5212 20.9629 31.3718 20.7655 31.2652C20.5735 31.1585 20.3495 31.1052 20.0935 31.1052C19.8322 31.1052 19.6029 31.1612 19.4055 31.2732C19.2135 31.3852 19.0535 31.5452 18.9255 31.7532L18.2055 31.6332L18.6535 28.6012H21.7335V29.2572H18.9735L19.2855 29.0012L18.9015 31.3052L18.6775 31.3132C18.7735 31.1478 18.8935 31.0012 19.0375 30.8732C19.1815 30.7452 19.3495 30.6438 19.5415 30.5692C19.7335 30.4892 19.9522 30.4492 20.1975 30.4492C20.5389 30.4492 20.8509 30.5292 21.1335 30.6892C21.4215 30.8492 21.6509 31.0732 21.8215 31.3612C21.9922 31.6438 22.0775 31.9772 22.0775 32.3612C22.0775 32.7452 21.9922 33.0838 21.8215 33.3772C21.6562 33.6705 21.4269 33.8998 21.1335 34.0652C20.8402 34.2252 20.5015 34.3052 20.1175 34.3052ZM24.7703 34.3052C24.3383 34.3052 23.9649 34.1878 23.6503 33.9532C23.3356 33.7132 23.0903 33.3772 22.9143 32.9452C22.7436 32.5078 22.6583 31.9932 22.6583 31.4012C22.6583 30.8092 22.7436 30.2945 22.9143 29.8572C23.0903 29.4198 23.3356 29.0838 23.6503 28.8492C23.9649 28.6145 24.3383 28.4972 24.7703 28.4972C25.2023 28.4972 25.5756 28.6145 25.8903 28.8492C26.2103 29.0838 26.4556 29.4198 26.6263 29.8572C26.7969 30.2945 26.8823 30.8092 26.8823 31.4012C26.8823 31.9932 26.7969 32.5078 26.6263 32.9452C26.4556 33.3772 26.2103 33.7132 25.8903 33.9532C25.5756 34.1878 25.2023 34.3052 24.7703 34.3052ZM24.7703 33.6412C25.0636 33.6412 25.3143 33.5532 25.5223 33.3772C25.7356 33.1958 25.9009 32.9372 26.0183 32.6012C26.1356 32.2598 26.1943 31.8598 26.1943 31.4012C26.1943 30.9425 26.1356 30.5452 26.0183 30.2092C25.9009 29.8678 25.7356 29.6092 25.5223 29.4332C25.3143 29.2518 25.0636 29.1612 24.7703 29.1612C24.4823 29.1612 24.2316 29.2518 24.0183 29.4332C23.8103 29.6092 23.6476 29.8678 23.5303 30.2092C23.4129 30.5452 23.3543 30.9425 23.3543 31.4012C23.3543 31.8598 23.4129 32.2598 23.5303 32.6012C23.6476 32.9372 23.8103 33.1958 24.0183 33.3772C24.2316 33.5532 24.4823 33.6412 24.7703 33.6412Z" fill="#AEB9E1"/>
<path d="M15.1957 8.30517C14.8277 8.30517 14.5023 8.23584 14.2197 8.09717C13.937 7.95851 13.7077 7.76384 13.5317 7.51317C13.3557 7.26251 13.2463 6.96917 13.2037 6.63317L13.7957 6.50517L13.8837 6.52117C13.9263 6.75051 14.0037 6.95051 14.1157 7.12117C14.233 7.28651 14.3797 7.41451 14.5557 7.50517C14.7317 7.59584 14.9343 7.64117 15.1637 7.64117C15.4357 7.64117 15.6677 7.58784 15.8597 7.48117C16.0517 7.37451 16.1983 7.22784 16.2997 7.04117C16.401 6.84917 16.4517 6.62784 16.4517 6.37717C16.4517 6.12651 16.3983 5.90517 16.2917 5.71317C16.1903 5.52117 16.041 5.37184 15.8437 5.26517C15.6517 5.15851 15.4277 5.10517 15.1717 5.10517C14.9103 5.10517 14.681 5.16117 14.4837 5.27317C14.2917 5.38517 14.1317 5.54517 14.0037 5.75317L13.2837 5.63317L13.7317 2.60117H16.8117V3.25717H14.0517L14.3637 3.00117L13.9797 5.30517L13.7557 5.31317C13.8517 5.14784 13.9717 5.00117 14.1157 4.87317C14.2597 4.74517 14.4277 4.64384 14.6197 4.56917C14.8117 4.48917 15.0303 4.44917 15.2757 4.44917C15.617 4.44917 15.929 4.52917 16.2117 4.68917C16.4997 4.84917 16.729 5.07317 16.8997 5.36117C17.0703 5.64384 17.1557 5.97717 17.1557 6.36117C17.1557 6.74517 17.0703 7.08384 16.8997 7.37717C16.7343 7.67051 16.505 7.89984 16.2117 8.06517C15.9183 8.22517 15.5797 8.30517 15.1957 8.30517ZM19.8484 8.30517C19.4164 8.30517 19.0431 8.18784 18.7284 7.95317C18.4137 7.71317 18.1684 7.37717 17.9924 6.94517C17.8217 6.50784 17.7364 5.99317 17.7364 5.40117C17.7364 4.80917 17.8217 4.2945 17.9924 3.85717C18.1684 3.41984 18.4137 3.08384 18.7284 2.84917C19.0431 2.6145 19.4164 2.49717 19.8484 2.49717C20.2804 2.49717 20.6537 2.6145 20.9684 2.84917C21.2884 3.08384 21.5337 3.41984 21.7044 3.85717C21.8751 4.2945 21.9604 4.80917 21.9604 5.40117C21.9604 5.99317 21.8751 6.50784 21.7044 6.94517C21.5337 7.37717 21.2884 7.71317 20.9684 7.95317C20.6537 8.18784 20.2804 8.30517 19.8484 8.30517ZM19.8484 7.64117C20.1417 7.64117 20.3924 7.55317 20.6004 7.37717C20.8137 7.19584 20.9791 6.93717 21.0964 6.60117C21.2137 6.25984 21.2724 5.85984 21.2724 5.40117C21.2724 4.94251 21.2137 4.54517 21.0964 4.20917C20.9791 3.86784 20.8137 3.60917 20.6004 3.43317C20.3924 3.25184 20.1417 3.16117 19.8484 3.16117C19.5604 3.16117 19.3097 3.25184 19.0964 3.43317C18.8884 3.60917 18.7257 3.86784 18.6084 4.20917C18.4911 4.54517 18.4324 4.94251 18.4324 5.40117C18.4324 5.85984 18.4911 6.25984 18.6084 6.60117C18.7257 6.93717 18.8884 7.19584 19.0964 7.37717C19.3097 7.55317 19.5604 7.64117 19.8484 7.64117ZM24.7703 8.30517C24.3383 8.30517 23.9649 8.18784 23.6503 7.95317C23.3356 7.71317 23.0903 7.37717 22.9143 6.94517C22.7436 6.50784 22.6583 5.99317 22.6583 5.40117C22.6583 4.80917 22.7436 4.2945 22.9143 3.85717C23.0903 3.41984 23.3356 3.08384 23.6503 2.84917C23.9649 2.6145 24.3383 2.49717 24.7703 2.49717C25.2023 2.49717 25.5756 2.6145 25.8903 2.84917C26.2103 3.08384 26.4556 3.41984 26.6263 3.85717C26.7969 4.2945 26.8823 4.80917 26.8823 5.40117C26.8823 5.99317 26.7969 6.50784 26.6263 6.94517C26.4556 7.37717 26.2103 7.71317 25.8903 7.95317C25.5756 8.18784 25.2023 8.30517 24.7703 8.30517ZM24.7703 7.64117C25.0636 7.64117 25.3143 7.55317 25.5223 7.37717C25.7356 7.19584 25.9009 6.93717 26.0183 6.60117C26.1356 6.25984 26.1943 5.85984 26.1943 5.40117C26.1943 4.94251 26.1356 4.54517 26.0183 4.20917C25.9009 3.86784 25.7356 3.60917 25.5223 3.43317C25.3143 3.25184 25.0636 3.16117 24.7703 3.16117C24.4823 3.16117 24.2316 3.25184 24.0183 3.43317C23.8103 3.60917 23.6476 3.86784 23.5303 4.20917C23.4129 4.54517 23.3543 4.94251 23.3543 5.40117C23.3543 5.85984 23.4129 6.25984 23.5303 6.60117C23.6476 6.93717 23.8103 7.19584 24.0183 7.37717C24.2316 7.55317 24.4823 7.64117 24.7703 7.64117Z" fill="#AEB9E1"/>
<path d="M43.8894 81.2012L78.7207 74.8078C78.8796 74.7787 79.029 74.7115 79.1563 74.6119L100.866 57.6311C101.152 57.4075 101.537 57.3564 101.871 57.4975L136.067 71.934C136.413 72.0799 136.811 72.0201 137.098 71.7792L161.305 51.4935C161.585 51.259 161.97 51.1956 162.311 51.3281L195.752 64.3533C195.826 64.3818 195.902 64.4016 195.98 64.4123L252.434 72.1349C252.61 72.159 252.789 72.1358 252.952 72.0678L298.586 53.1342C298.709 53.0833 298.82 53.0086 298.914 52.9143L333.355 18.1446C333.749 17.7467 334.393 17.75 334.783 18.1519L389.421 74.4598C389.609 74.6539 389.868 74.7634 390.138 74.7634H451.683C451.851 74.7634 452.017 74.721 452.164 74.64L494.471 51.4136C494.806 51.2298 495.216 51.2527 495.528 51.4727L524.758 72.0658C524.858 72.1358 524.969 72.1871 525.087 72.2171L560.255 81.2012" stroke="url(#paint0_linear_360_700)" stroke-width="1.2" stroke-linecap="round"/>
<path d="M61.0384 99.6699L61.0464 99.5019L63.3664 94.0699H64.0144V94.2379L61.6944 99.6699H61.0384ZM58.5104 99.6699V94.0699H59.1904V99.6699H58.5104ZM61.0464 99.6699L58.7184 94.2379V94.0699H59.3744L61.6944 99.5019V99.6699H61.0464ZM63.5424 99.6699V94.0699H64.2224V99.6699H63.5424ZM67.8951 99.7739C67.3831 99.7739 66.9244 99.6539 66.5191 99.4139C66.1191 99.1686 65.8044 98.8273 65.5751 98.3899C65.3511 97.9526 65.2391 97.4459 65.2391 96.8699C65.2391 96.2939 65.3511 95.7873 65.5751 95.3499C65.8044 94.9126 66.1191 94.5739 66.5191 94.3339C66.9244 94.0886 67.3831 93.9659 67.8951 93.9659C68.4124 93.9659 68.8711 94.0886 69.2711 94.3339C69.6711 94.5739 69.9831 94.9126 70.2071 95.3499C70.4364 95.7873 70.5511 96.2939 70.5511 96.8699C70.5511 97.4459 70.4364 97.9526 70.2071 98.3899C69.9831 98.8273 69.6711 99.1686 69.2711 99.4139C68.8711 99.6539 68.4124 99.7739 67.8951 99.7739ZM67.8951 99.1099C68.2684 99.1099 68.6018 99.0193 68.8951 98.8379C69.1938 98.6513 69.4284 98.3899 69.5991 98.0539C69.7698 97.7179 69.8551 97.3233 69.8551 96.8699C69.8551 96.4113 69.7698 96.0139 69.5991 95.6779C69.4284 95.3419 69.1938 95.0833 68.8951 94.9019C68.6018 94.7206 68.2684 94.6299 67.8951 94.6299C67.5218 94.6299 67.1884 94.7206 66.8951 94.9019C66.6018 95.0833 66.3671 95.3419 66.1911 95.6779C66.0204 96.0139 65.9351 96.4113 65.9351 96.8699C65.9351 97.3233 66.0204 97.7179 66.1911 98.0539C66.3671 98.3899 66.6018 98.6513 66.8951 98.8379C67.1884 99.0193 67.5218 99.1099 67.8951 99.1099ZM75.2292 99.6699L71.5572 94.2619V94.0699H72.2372L75.9092 99.4779V99.6699H75.2292ZM71.5572 99.6699V94.0699H72.2372V99.6699H71.5572ZM75.2292 99.6699V94.0699H75.9092V99.6699H75.2292Z" fill="#AEB9E1"/>
<path d="M142.814 99.6699V94.0699H143.502V99.6699H142.814ZM141.078 94.7259V94.0699H145.23V94.7259H141.078ZM148.033 99.7739C147.607 99.7739 147.239 99.6886 146.929 99.5179C146.62 99.3419 146.383 99.0939 146.217 98.7739C146.052 98.4486 145.969 98.0619 145.969 97.6139V94.0699H146.649V97.6299C146.649 98.1046 146.767 98.4699 147.001 98.7259C147.241 98.9819 147.585 99.1099 148.033 99.1099C148.476 99.1099 148.815 98.9819 149.049 98.7259C149.289 98.4699 149.409 98.1046 149.409 97.6299V94.0699H150.089V97.6139C150.089 98.0619 150.007 98.4486 149.841 98.7739C149.676 99.0939 149.439 99.3419 149.129 99.5179C148.825 99.6886 148.46 99.7739 148.033 99.7739ZM151.26 99.6699V94.0699H151.94V99.6699H151.26ZM151.612 99.6699V99.0139H154.836V99.6699H151.612ZM151.612 97.1659V96.5019H154.66V97.1659H151.612ZM151.612 94.7259V94.0699H154.836V94.7259H151.612Z" fill="#AEB9E1"/>
<path d="M225.222 99.6699L223.454 94.0699H224.15L225.806 99.5019L225.878 99.6699H225.222ZM225.222 99.6699L225.262 99.5019L226.79 94.0699H227.502V94.1339L225.878 99.6699H225.222ZM221.718 99.6699L220.102 94.1339V94.0699H220.806L222.342 99.5019L222.374 99.6699H221.718ZM221.718 99.6699L221.79 99.5019L223.454 94.0699H224.15L222.374 99.6699H221.718ZM228.338 99.6699V94.0699H229.018V99.6699H228.338ZM228.69 99.6699V99.0139H231.914V99.6699H228.69ZM228.69 97.1659V96.5019H231.738V97.1659H228.69ZM228.69 94.7259V94.0699H231.914V94.7259H228.69ZM233.284 99.6699V99.0139H234.844C235.234 99.0139 235.564 98.9259 235.836 98.7499C236.114 98.5686 236.327 98.3179 236.476 97.9979C236.626 97.6779 236.7 97.3019 236.7 96.8699C236.7 96.4326 236.626 96.0539 236.476 95.7339C236.327 95.4139 236.114 95.1659 235.836 94.9899C235.564 94.8139 235.234 94.7259 234.844 94.7259H233.284V94.0699H234.844C235.372 94.0699 235.826 94.1873 236.204 94.4219C236.588 94.6566 236.882 94.9846 237.084 95.4059C237.287 95.8273 237.388 96.3153 237.388 96.8699C237.388 97.4246 237.287 97.9126 237.084 98.3339C236.882 98.7553 236.588 99.0833 236.204 99.3179C235.826 99.5526 235.372 99.6699 234.844 99.6699H233.284ZM232.924 99.6699V94.0699H233.604V99.6699H232.924Z" fill="#AEB9E1"/>
<path d="M303.814 99.6699V94.0699H304.502V99.6699H303.814ZM302.078 94.7259V94.0699H306.23V94.7259H302.078ZM310.641 99.6699V94.0699H311.321V99.6699H310.641ZM307.049 99.6699V94.0699H307.729V99.6699H307.049ZM307.401 97.1259V96.4619H311.041V97.1259H307.401ZM314.565 99.7739C314.138 99.7739 313.77 99.6886 313.461 99.5179C313.151 99.3419 312.914 99.0939 312.749 98.7739C312.583 98.4486 312.501 98.0619 312.501 97.6139V94.0699H313.181V97.6299C313.181 98.1046 313.298 98.4699 313.533 98.7259C313.773 98.9819 314.117 99.1099 314.565 99.1099C315.007 99.1099 315.346 98.9819 315.581 98.7259C315.821 98.4699 315.941 98.1046 315.941 97.6299V94.0699H316.621V97.6139C316.621 98.0619 316.538 98.4486 316.373 98.7739C316.207 99.0939 315.97 99.3419 315.661 99.5179C315.357 99.6886 314.991 99.7739 314.565 99.7739ZM317.792 99.6699V94.0699H318.472V99.6699H317.792ZM318.168 97.4059V96.7499H319.864C320.194 96.7499 320.45 96.6619 320.632 96.4859C320.818 96.3046 320.912 96.0566 320.912 95.7419H321.632C321.632 96.2486 321.472 96.6539 321.152 96.9579C320.837 97.2566 320.416 97.4059 319.888 97.4059H318.168ZM320.912 95.7419C320.912 95.4273 320.818 95.1793 320.632 94.9979C320.45 94.8166 320.194 94.7259 319.864 94.7259H318.168V94.0699H319.888C320.416 94.0699 320.837 94.2219 321.152 94.5259C321.472 94.8246 321.632 95.2299 321.632 95.7419H320.912ZM320.92 99.6699L319.568 97.2379L320.192 96.9819L321.664 99.6059V99.6699H320.92Z" fill="#AEB9E1"/>
<path d="M387.51 99.6699V94.0699H388.19V99.6699H387.51ZM387.862 97.2059V96.5419H390.75V97.2059H387.862ZM387.862 94.7259V94.0699H390.99V94.7259H387.862ZM391.924 99.6699V94.0699H392.604V99.6699H391.924ZM392.3 97.4059V96.7499H393.996C394.327 96.7499 394.583 96.6619 394.764 96.4859C394.951 96.3046 395.044 96.0566 395.044 95.7419H395.764C395.764 96.2486 395.604 96.6539 395.284 96.9579C394.97 97.2566 394.548 97.4059 394.02 97.4059H392.3ZM395.044 95.7419C395.044 95.4273 394.951 95.1793 394.764 94.9979C394.583 94.8166 394.327 94.7259 393.996 94.7259H392.3V94.0699H394.02C394.548 94.0699 394.97 94.2219 395.284 94.5259C395.604 94.8246 395.764 95.2299 395.764 95.7419H395.044ZM395.052 99.6699L393.7 97.2379L394.324 96.9819L395.796 99.6059V99.6699H395.052ZM396.721 99.6699V94.0699H397.401V99.6699H396.721Z" fill="#AEB9E1"/>
<path d="M465.422 99.7739C465.049 99.7739 464.708 99.7046 464.398 99.5659C464.094 99.4273 463.838 99.2326 463.63 98.9819C463.428 98.7313 463.292 98.4406 463.222 98.1099L463.854 97.9579L463.942 97.9739C464.001 98.1873 464.102 98.3819 464.246 98.5579C464.39 98.7286 464.564 98.8646 464.766 98.9659C464.974 99.0673 465.193 99.1179 465.422 99.1179C465.673 99.1179 465.892 99.0779 466.078 98.9979C466.27 98.9179 466.42 98.8059 466.526 98.6619C466.638 98.5179 466.694 98.3526 466.694 98.1659C466.694 97.9153 466.622 97.7233 466.478 97.5899C466.34 97.4566 466.145 97.3553 465.894 97.2859L464.814 96.9899C464.372 96.8673 464.036 96.6726 463.806 96.4059C463.577 96.1393 463.462 95.8326 463.462 95.4859C463.462 95.1873 463.54 94.9259 463.694 94.7019C463.849 94.4726 464.062 94.2939 464.334 94.1659C464.612 94.0326 464.932 93.9659 465.294 93.9659C465.641 93.9659 465.956 94.0326 466.238 94.1659C466.526 94.2939 466.761 94.4753 466.942 94.7099C467.129 94.9446 467.252 95.2219 467.31 95.5419L466.694 95.6779L466.606 95.6619C466.537 95.3419 466.382 95.0886 466.142 94.9019C465.908 94.7153 465.622 94.6219 465.286 94.6219C464.956 94.6219 464.689 94.7019 464.486 94.8619C464.284 95.0166 464.182 95.2246 464.182 95.4859C464.182 95.6939 464.254 95.8673 464.398 96.0059C464.542 96.1446 464.75 96.2513 465.022 96.3259L466.094 96.6219C466.516 96.7393 466.841 96.9259 467.07 97.1819C467.3 97.4379 467.414 97.7526 467.414 98.1259C467.414 98.4566 467.332 98.7446 467.166 98.9899C467.001 99.2353 466.769 99.4273 466.47 99.5659C466.172 99.7046 465.822 99.7739 465.422 99.7739ZM472.04 99.6699L470.016 94.2379L469.96 94.0699H470.64L472.768 99.6059V99.6699H472.04ZM467.832 99.6699V99.6059L469.96 94.0699H470.64L470.584 94.2379L468.56 99.6699H467.832ZM468.656 98.2299L468.896 97.5659H471.784L472.024 98.2299H468.656ZM474.166 99.6699V94.0699H474.854V99.6699H474.166ZM472.43 94.7259V94.0699H476.582V94.7259H472.43Z" fill="#AEB9E1"/>
<path d="M543.422 99.7739C543.049 99.7739 542.708 99.7046 542.398 99.5659C542.094 99.4273 541.838 99.2326 541.63 98.9819C541.428 98.7313 541.292 98.4406 541.222 98.1099L541.854 97.9579L541.942 97.9739C542.001 98.1873 542.102 98.3819 542.246 98.5579C542.39 98.7286 542.564 98.8646 542.766 98.9659C542.974 99.0673 543.193 99.1179 543.422 99.1179C543.673 99.1179 543.892 99.0779 544.078 98.9979C544.27 98.9179 544.42 98.8059 544.526 98.6619C544.638 98.5179 544.694 98.3526 544.694 98.1659C544.694 97.9153 544.622 97.7233 544.478 97.5899C544.34 97.4566 544.145 97.3553 543.894 97.2859L542.814 96.9899C542.372 96.8673 542.036 96.6726 541.806 96.4059C541.577 96.1393 541.462 95.8326 541.462 95.4859C541.462 95.1873 541.54 94.9259 541.694 94.7019C541.849 94.4726 542.062 94.2939 542.334 94.1659C542.612 94.0326 542.932 93.9659 543.294 93.9659C543.641 93.9659 543.956 94.0326 544.238 94.1659C544.526 94.2939 544.761 94.4753 544.942 94.7099C545.129 94.9446 545.252 95.2219 545.31 95.5419L544.694 95.6779L544.606 95.6619C544.537 95.3419 544.382 95.0886 544.142 94.9019C543.908 94.7153 543.622 94.6219 543.286 94.6219C542.956 94.6219 542.689 94.7019 542.486 94.8619C542.284 95.0166 542.182 95.2246 542.182 95.4859C542.182 95.6939 542.254 95.8673 542.398 96.0059C542.542 96.1446 542.75 96.2513 543.022 96.3259L544.094 96.6219C544.516 96.7393 544.841 96.9259 545.07 97.1819C545.3 97.4379 545.414 97.7526 545.414 98.1259C545.414 98.4566 545.332 98.7446 545.166 98.9899C545.001 99.2353 544.769 99.4273 544.47 99.5659C544.172 99.7046 543.822 99.7739 543.422 99.7739ZM548.408 99.7739C547.982 99.7739 547.614 99.6886 547.304 99.5179C546.995 99.3419 546.758 99.0939 546.592 98.7739C546.427 98.4486 546.344 98.0619 546.344 97.6139V94.0699H547.024V97.6299C547.024 98.1046 547.142 98.4699 547.376 98.7259C547.616 98.9819 547.96 99.1099 548.408 99.1099C548.851 99.1099 549.19 98.9819 549.424 98.7259C549.664 98.4699 549.784 98.1046 549.784 97.6299V94.0699H550.464V97.6139C550.464 98.0619 550.382 98.4486 550.216 98.7739C550.051 99.0939 549.814 99.3419 549.504 99.5179C549.2 99.6886 548.835 99.7739 548.408 99.7739ZM555.307 99.6699L551.635 94.2619V94.0699H552.315L555.987 99.4779V99.6699H555.307ZM551.635 99.6699V94.0699H552.315V99.6699H551.635ZM555.307 99.6699V94.0699H555.987V99.6699H555.307Z" fill="#AEB9E1"/>
<defs>
<linearGradient id="paint0_linear_360_700" x1="78.7714" y1="-10.7056" x2="313.378" y2="280.259" gradientUnits="userSpaceOnUse">
<stop stop-color="#CB39C1"/>
<stop offset="0.31" stop-color="#B91F7A"/>
<stop offset="0.78" stop-color="#3534FF"/>
</linearGradient>
</defs>
</svg>
