<svg width="1112" height="908" viewBox="0 0 1112 908" fill="none" xmlns="http://www.w3.org/2000/svg">
<path opacity="0.5" fill-rule="evenodd" clip-rule="evenodd" d="M79.7344 1048C72.3613 1010.3 68.5 971.354 68.5 931.5C68.5 598.196 338.695 328 672 328C1005.3 328 1275.5 598.196 1275.5 931.5C1275.5 971.354 1271.64 1010.3 1264.27 1048H1171.69C1180.38 1010.57 1184.97 971.573 1184.97 931.5C1184.97 648.192 955.309 418.525 672 418.525C388.691 418.525 159.025 648.192 159.025 931.5C159.025 971.573 163.621 1010.57 172.312 1048H79.7344ZM1088.58 1048H1020.65C1032.91 1011.24 1039.55 971.896 1039.55 931C1039.55 727.262 874.768 562.1 671.5 562.1C468.232 562.1 303.449 727.262 303.449 931C303.449 971.896 310.088 1011.24 322.346 1048H254.416C244.045 1010.78 238.5 971.538 238.5 931C238.5 691.308 432.361 497 671.5 497C910.639 497 1104.5 691.308 1104.5 931C1104.5 971.538 1098.96 1010.78 1088.58 1048Z" fill="url(#paint0_linear_233_477)"/>
<defs>
<linearGradient id="paint0_linear_233_477" x1="671.5" y1="497" x2="671.5" y2="1365" gradientUnits="userSpaceOnUse">
<stop stop-color="#161616"/>
<stop offset="1" stop-color="#0D0D0D"/>
</linearGradient>
</defs>
</svg>
