<svg width="80" height="80" viewBox="0 0 80 80" fill="none" xmlns="http://www.w3.org/2000/svg">
<path fill-rule="evenodd" clip-rule="evenodd" d="M6.6665 40.0001C6.6665 21.5906 21.5903 6.66675 39.9998 6.66675C48.8404 6.66675 57.3189 10.1786 63.5701 16.4299C69.8213 22.6811 73.3332 31.1595 73.3332 40.0001C73.3332 58.4096 58.4093 73.3334 39.9998 73.3334C21.5903 73.3334 6.6665 58.4096 6.6665 40.0001ZM39.0998 52.0334L54.3332 32.0334V31.9334C55.0596 30.9807 55.2226 29.7128 54.7608 28.6073C54.2989 27.5019 53.2824 26.7268 52.0941 26.574C50.9058 26.4213 49.7263 26.914 48.9998 27.8667L36.3998 44.5334L30.9665 37.6001C30.2341 36.6593 29.0554 36.1807 27.8745 36.3446C26.6935 36.5084 25.6897 37.2899 25.2412 38.3946C24.7926 39.4992 24.9674 40.7593 25.6998 41.7001L33.8332 52.0668C34.4692 52.8717 35.4406 53.3389 36.4665 53.3334C37.4982 53.3309 38.4705 52.8509 39.0998 52.0334Z" fill="url(#paint0_linear_458_3032)"/>
<defs>
<linearGradient id="paint0_linear_458_3032" x1="11.17" y1="-22.7312" x2="86.2867" y2="-11.2239" gradientUnits="userSpaceOnUse">
<stop stop-color="#CB39C1"/>
<stop offset="0.31" stop-color="#B91F7A"/>
<stop offset="0.78" stop-color="#3534FF"/>
</linearGradient>
</defs>
</svg>
